<svg width="25" fill="#CED2DA" height="25" viewBox="0 0 25 25" xmlns="http://www.w3.org/2000/svg">
  <path d="M11.345 0.73881C11.6129 0.198228 12.3871 0.198229 12.6551 0.738811L15.6944 6.87047C15.8008 7.08513 16.0064 7.23392 16.2444 7.26835L23.0404 8.2516C23.6396 8.33829 23.8788 9.07141 23.4453 9.4922L18.5276 14.265C18.3554 14.4321 18.2769 14.6729 18.3175 14.9088L19.4784 21.6481C19.5808 22.2423 18.9544 22.6954 18.4185 22.4149L12.3399 19.233C12.1271 19.1216 11.8729 19.1216 11.6601 19.233L5.58149 22.4149C5.04559 22.6954 4.41925 22.2423 4.5216 21.6481L5.68251 14.9088C5.72315 14.6729 5.64459 14.4321 5.47242 14.265L0.554739 9.4922C0.121185 9.07141 0.360426 8.33829 0.959584 8.2516L7.75565 7.26835C7.99358 7.23392 8.19926 7.08513 8.30566 6.87047L11.345 0.73881Z" fill="#CED2DA"/>
</svg>
